<?xml version="1.0" encoding="UTF-8"?>
<svg xmlns="http://www.w3.org/2000/svg" viewBox="0 0 512 512" role="img" aria-label="La Piccola Perla">
  <title>La Piccola Perla</title>
  <rect width="512" height="512" rx="96" fill="#fffaf2"/>
  <circle cx="256" cy="194" r="88" fill="#b40000"/>
  <path d="M101 278c49 20 95 10 133-28 8-8 14-16 22-26 8 10 14 18 22 26 38 38 84 48 133 28-25 48-67 83-116 80-16-1-29-6-39-15-10 9-23 14-39 15-49 3-91-32-116-80Z" fill="#111111"/>
  <path d="M105 335c88 45 214 45 302 0" fill="none" stroke="#111111" stroke-width="18" stroke-linecap="round"/>
</svg>
